# xmcd CD database file
#
# Track frame offsets:
#	150
#	16787
#	31506
#	44249
#	57778
#	73531
#	83965
#	99952
#	114089
#	131342
#
# Disc length: 1902 seconds
#
# Revision: 1
# Processed by: cddbd v1.4PL0 Copyright (c) Steve Scherf et al.
# Submitted via: Feurio! 1.64 - http://www.feurio.com
#
DISCID=70076c0a
DTITLE=Jamie Cotter - With Fiends like you
DYEAR=1900
DGENRE=
TTITLE0=Sweet Dreams
TTITLE1=Lest Forget me not
TTITLE2=Back on Track
TTITLE3=For my Bride
TTITLE4=The Bottle Lied
TTITLE5=Why Baby Why
TTITLE6=I'm Sorry You don't love me anymore
TTITLE7=I'll spend my Life Loving you
TTITLE8=Unbroken Vows
TTITLE9=Missing you
EXTD=
EXTT0=
EXTT1=
EXTT2=
EXTT3=
EXTT4=
EXTT5=
EXTT6=
EXTT7=
EXTT8=
EXTT9=
PLAYORDER=
